# xmcd
#
# Track frame offsets: 
#        183
#        17080
#        43620
#        57635
#        72205
#        89000
#        112305
#        130613
#        151433
#        170710
#        186928
#        205755
#        222023
#
# Disc length: 3414 seconds
#
# Revision: 3
# Processed by: cddbd v1.5.2PL0 Copyright (c) Steve Scherf et al.
# Submitted via: ExactAudioCopy v1.0b6
#
DISCID=c20d540d
DTITLE=Guilherme Arantes - Geração Pop
DYEAR=1993
DGENRE=MPB
TTITLE0=Deixa Chover
TTITLE1=Planeta Agua
TTITLE2=Meu Mundo e Nada Mais
TTITLE3=Pedacinhos
TTITLE4=Só o Prazer
TTITLE5=Extase
TTITLE6=Lance Legal
TTITLE7=A Noite
TTITLE8=Todo Mes de Maio na Maior
TTITLE9=Mas Ela Não Quer , Mas Ela Não Pode
TTITLE10=A Cara e a Coragem
TTITLE11=O Melhor Vai Começar
TTITLE12=Amanhã
EXTD=
EXTT0=
EXTT1=
EXTT2=
EXTT3=
EXTT4=
EXTT5=
EXTT6=
EXTT7=
EXTT8=
EXTT9=
EXTT10=
EXTT11=
EXTT12=
PLAYORDER=
